<?xml version="1.0" encoding="UTF-8"?>
<svg xmlns="http://www.w3.org/2000/svg" viewBox="0 0 393 844" width="393" height="844">
  <title>S07 · Feature Candidates</title>
  <desc>FeatureDoc wireframe — S07 Feature Candidates — AC1.4 · V1</desc>
  <rect x="0" y="0" width="393" height="844" rx="38" fill="#fff" stroke="#1a1a1a" stroke-width="1.5"/>
  <text x="28" y="32" font-size="13" font-family="ui-sans-serif, system-ui, -apple-system, 'Segoe UI', sans-serif" fill="#1a1a1a" font-weight="600" text-anchor="start">9:41</text><rect x="330" y="26" width="14" height="8" rx="1" fill="#1a1a1a" stroke="none" stroke-width="1"/><rect x="348" y="26" width="12" height="8" rx="1" fill="#1a1a1a" stroke="none" stroke-width="1"/><rect x="364" y="26" width="18" height="8" rx="2" fill="none" stroke="#1a1a1a" stroke-width="1"/><rect x="366" y="28" width="14" height="4" rx="0" fill="#1a1a1a" stroke="none" stroke-width="1"/><rect x="129.5" y="824" width="134" height="5" rx="2.5" fill="#444" stroke="none" stroke-width="1"/>
  <rect x="22" y="64" width="30" height="30" rx="7" fill="none" stroke="#bdbdbd" stroke-width="1"/><line x1="38" y1="75" x2="32" y2="79" stroke="#757575" stroke-width="1.4"/><line x1="32" y1="79" x2="38" y2="83" stroke="#757575" stroke-width="1.4"/><rect x="341" y="64" width="30" height="30" rx="7" fill="none" stroke="#bdbdbd" stroke-width="1"/><circle cx="350" cy="79" r="1.4" fill="#757575" stroke="none" stroke-width="1"/><circle cx="356" cy="79" r="1.4" fill="#757575" stroke="none" stroke-width="1"/><circle cx="362" cy="79" r="1.4" fill="#757575" stroke="none" stroke-width="1"/><text x="196.5" y="84" font-size="12" font-family="ui-monospace, 'JetBrains Mono', 'SF Mono', Menlo, monospace" fill="#1a1a1a" font-weight="400" text-anchor="middle" letter-spacing="1.2">PAYMENTS-API · CANDIDATES</text><text x="22" y="130" font-size="18" font-family="ui-sans-serif, system-ui, -apple-system, 'Segoe UI', sans-serif" fill="#1a1a1a" font-weight="600" text-anchor="start">Feature candidates</text><text x="22" y="148" font-size="11" font-family="ui-sans-serif, system-ui, -apple-system, 'Segoe UI', sans-serif" fill="#757575" font-weight="400" text-anchor="start">탐색 전략을 통해 발견된 후보 23개. 승인하거나 거부하세요.</text><text x="22" y="178" font-size="10" font-family="ui-monospace, 'JetBrains Mono', 'SF Mono', Menlo, monospace" fill="#757575" font-weight="400" text-anchor="start">9 approved   ·   12 pending   ·   2 rejected</text><rect x="22" y="198" width="60" height="16" rx="3" fill="none" stroke="#bdbdbd" stroke-width="1"/><text x="30" y="209" font-size="8" font-family="ui-monospace, 'JetBrains Mono', 'SF Mono', Menlo, monospace" fill="#757575" font-weight="400" text-anchor="start" letter-spacing="0.6">ALL · 23</text><rect x="88" y="198" width="82" height="16" rx="3" fill="none" stroke="#bdbdbd" stroke-width="1"/><text x="96" y="209" font-size="8" font-family="ui-monospace, 'JetBrains Mono', 'SF Mono', Menlo, monospace" fill="#757575" font-weight="400" text-anchor="start" letter-spacing="0.6">PENDING · 12</text><rect x="176" y="198" width="82" height="16" rx="3" fill="none" stroke="#bdbdbd" stroke-width="1"/><text x="184" y="209" font-size="8" font-family="ui-monospace, 'JetBrains Mono', 'SF Mono', Menlo, monospace" fill="#757575" font-weight="400" text-anchor="start" letter-spacing="0.6">APPROVED · 9</text><rect x="22" y="232" width="349" height="100" rx="10" fill="#f4f4f4" stroke="#e0e0e0" stroke-width="1"/><text x="36" y="254" font-size="12" font-family="ui-sans-serif, system-ui, -apple-system, 'Segoe UI', sans-serif" fill="#1a1a1a" font-weight="600" text-anchor="start">Process card payment</text><text x="36" y="270" font-size="9" font-family="ui-monospace, 'JetBrains Mono', 'SF Mono', Menlo, monospace" fill="#757575" font-weight="400" text-anchor="start">POST /v1/payments · routes/payments.py:42</text><rect x="301" y="244" width="28" height="24" rx="5" fill="none" stroke="#bdbdbd" stroke-width="1"/><line x1="307" y1="256" x2="311" y2="260" stroke="#757575" stroke-width="1.4"/><line x1="311" y1="260" x2="321" y2="250" stroke="#757575" stroke-width="1.4"/><rect x="335" y="244" width="28" height="24" rx="5" fill="none" stroke="#bdbdbd" stroke-width="1"/><line x1="341" y1="250" x2="357" y2="262" stroke="#757575" stroke-width="1.4"/><line x1="357" y1="250" x2="341" y2="262" stroke="#757575" stroke-width="1.4"/><text x="36" y="292" font-size="10" font-family="ui-sans-serif, system-ui, -apple-system, 'Segoe UI', sans-serif" fill="#1a1a1a" font-weight="400" text-anchor="start">결제 토큰을 받아 PSP에 청구를 보내고 결과를 응답해요.</text><rect x="36" y="312" width="38" height="16" rx="3" fill="none" stroke="#bdbdbd" stroke-width="1"/><text x="44" y="323" font-size="8" font-family="ui-monospace, 'JetBrains Mono', 'SF Mono', Menlo, monospace" fill="#757575" font-weight="400" text-anchor="start" letter-spacing="0.6">HTTP</text><rect x="78" y="312" width="71" height="16" rx="3" fill="none" stroke="#bdbdbd" stroke-width="1"/><text x="86" y="323" font-size="8" font-family="ui-monospace, 'JetBrains Mono', 'SF Mono', Menlo, monospace" fill="#757575" font-weight="400" text-anchor="start" letter-spacing="0.6">IDEMPOTENT</text><rect x="22" y="342" width="349" height="100" rx="10" fill="#f4f4f4" stroke="#e0e0e0" stroke-width="1"/><text x="36" y="364" font-size="12" font-family="ui-sans-serif, system-ui, -apple-system, 'Segoe UI', sans-serif" fill="#1a1a1a" font-weight="600" text-anchor="start">Refund a payment</text><text x="36" y="380" font-size="9" font-family="ui-monospace, 'JetBrains Mono', 'SF Mono', Menlo, monospace" fill="#757575" font-weight="400" text-anchor="start">POST /v1/payments/{id}/refund · routes/refunds.py:18</text><rect x="301" y="354" width="28" height="24" rx="5" fill="none" stroke="#bdbdbd" stroke-width="1"/><line x1="307" y1="366" x2="311" y2="370" stroke="#757575" stroke-width="1.4"/><line x1="311" y1="370" x2="321" y2="360" stroke="#757575" stroke-width="1.4"/><rect x="335" y="354" width="28" height="24" rx="5" fill="none" stroke="#bdbdbd" stroke-width="1"/><line x1="341" y1="360" x2="357" y2="372" stroke="#757575" stroke-width="1.4"/><line x1="357" y1="360" x2="341" y2="372" stroke="#757575" stroke-width="1.4"/><text x="36" y="402" font-size="10" font-family="ui-sans-serif, system-ui, -apple-system, 'Segoe UI', sans-serif" fill="#1a1a1a" font-weight="400" text-anchor="start">기존 결제에 대해 부분/전체 환불을 처리해요.</text><rect x="36" y="422" width="38" height="16" rx="3" fill="none" stroke="#bdbdbd" stroke-width="1"/><text x="44" y="433" font-size="8" font-family="ui-monospace, 'JetBrains Mono', 'SF Mono', Menlo, monospace" fill="#757575" font-weight="400" text-anchor="start" letter-spacing="0.6">HTTP</text><rect x="22" y="452" width="349" height="100" rx="10" fill="#f4f4f4" stroke="#e0e0e0" stroke-width="1"/><text x="36" y="474" font-size="12" font-family="ui-sans-serif, system-ui, -apple-system, 'Segoe UI', sans-serif" fill="#1a1a1a" font-weight="600" text-anchor="start">Schedule recurring billing</text><text x="36" y="490" font-size="9" font-family="ui-monospace, 'JetBrains Mono', 'SF Mono', Menlo, monospace" fill="#757575" font-weight="400" text-anchor="start">workers/handlers/billing.py:7 · scheduler/cron.yaml</text><rect x="301" y="464" width="28" height="24" rx="5" fill="none" stroke="#bdbdbd" stroke-width="1"/><line x1="307" y1="476" x2="311" y2="480" stroke="#757575" stroke-width="1.4"/><line x1="311" y1="480" x2="321" y2="470" stroke="#757575" stroke-width="1.4"/><rect x="335" y="464" width="28" height="24" rx="5" fill="none" stroke="#bdbdbd" stroke-width="1"/><line x1="341" y1="470" x2="357" y2="482" stroke="#757575" stroke-width="1.4"/><line x1="357" y1="470" x2="341" y2="482" stroke="#757575" stroke-width="1.4"/><text x="36" y="512" font-size="10" font-family="ui-sans-serif, system-ui, -apple-system, 'Segoe UI', sans-serif" fill="#1a1a1a" font-weight="400" text-anchor="start">매월 활성 구독자에 대해 청구를 자동 생성. 2개 후보가 같은 기능 — </text><text x="36" y="526" font-size="10" font-family="ui-sans-serif, system-ui, -apple-system, 'Segoe UI', sans-serif" fill="#1a1a1a" font-weight="400" text-anchor="start">병합 권장.</text><rect x="36" y="532" width="49" height="16" rx="3" fill="none" stroke="#bdbdbd" stroke-width="1"/><text x="44" y="543" font-size="8" font-family="ui-monospace, 'JetBrains Mono', 'SF Mono', Menlo, monospace" fill="#757575" font-weight="400" text-anchor="start" letter-spacing="0.6">WORKER</text><rect x="89" y="532" width="54.5" height="16" rx="3" fill="none" stroke="#bdbdbd" stroke-width="1"/><text x="97" y="543" font-size="8" font-family="ui-monospace, 'JetBrains Mono', 'SF Mono', Menlo, monospace" fill="#757575" font-weight="400" text-anchor="start" letter-spacing="0.6">MERGE 2</text><rect x="22" y="562" width="349" height="100" rx="10" fill="#f4f4f4" stroke="#e0e0e0" stroke-width="1"/><text x="36" y="584" font-size="12" font-family="ui-sans-serif, system-ui, -apple-system, 'Segoe UI', sans-serif" fill="#1a1a1a" font-weight="600" text-anchor="start">Issue receipt PDF</text><text x="36" y="600" font-size="9" font-family="ui-monospace, 'JetBrains Mono', 'SF Mono', Menlo, monospace" fill="#757575" font-weight="400" text-anchor="start">workers/handlers/receipt.py:11</text><rect x="301" y="574" width="28" height="24" rx="5" fill="none" stroke="#bdbdbd" stroke-width="1"/><line x1="307" y1="586" x2="311" y2="590" stroke="#757575" stroke-width="1.4"/><line x1="311" y1="590" x2="321" y2="580" stroke="#757575" stroke-width="1.4"/><rect x="335" y="574" width="28" height="24" rx="5" fill="none" stroke="#bdbdbd" stroke-width="1"/><line x1="341" y1="580" x2="357" y2="592" stroke="#757575" stroke-width="1.4"/><line x1="357" y1="580" x2="341" y2="592" stroke="#757575" stroke-width="1.4"/><text x="36" y="622" font-size="10" font-family="ui-sans-serif, system-ui, -apple-system, 'Segoe UI', sans-serif" fill="#1a1a1a" font-weight="400" text-anchor="start">결제 성공 시 PDF 영수증을 생성해 S3에 저장하고 이메일로 발송.</text><text x="196.5" y="695" font-size="9" font-family="ui-monospace, 'JetBrains Mono', 'SF Mono', Menlo, monospace" fill="#757575" font-weight="400" text-anchor="middle">8 more candidates ↓</text><text x="22" y="800" font-size="9" font-family="ui-monospace, 'JetBrains Mono', 'SF Mono', Menlo, monospace" fill="#a8a8a8" font-weight="400" text-anchor="start" letter-spacing="1">02 — DISCOVERY · APPROVE / REJECT CANDIDATES</text>
</svg>
